<svg xmlns="http://www.w3.org/2000/svg" viewBox="0 0 698.59 110.16"><title>Flex_Kino_main_clain</title><g id="Layer_2" data-name="Layer 2"><g id="Layer_2-2" data-name="Layer 2"><path d="M70.38,2.45a2.23,2.23,0,0,1,2.3,2.14v23.1a2.17,2.17,0,0,1-2.3,2.3H31.52V43.91H62.27a1.84,1.84,0,0,1,2,2L62.12,67.32a2.69,2.69,0,0,1-2.6,2h-28v36.57a2.33,2.33,0,0,1-2.3,2.14H2.14A2.33,2.33,0,0,1,0,105.72V4.59A2.19,2.19,0,0,1,2.14,2.45Z" fill="#fff"/><path d="M139.23,80.48a2.06,2.06,0,0,1,2,2.14l-2.14,23.26a2.63,2.63,0,0,1-2.45,2.14H81.4a2.33,2.33,0,0,1-2.3-2.14V4.74a2.35,2.35,0,0,1,2.3-2.29h27.08a2.35,2.35,0,0,1,2.29,2.29V80.48Z" fill="#fff"/><path d="M220.93,80.48a2.21,2.21,0,0,1,2.3,2v23.41a2.33,2.33,0,0,1-2.3,2.14H149.79c-1.07,0-2.15-1.23-2.45-2.3V4.59a1.93,1.93,0,0,1,2.14-2.14H219.1a2.37,2.37,0,0,1,2.44,2.14v23.1A2.29,2.29,0,0,1,219.1,30H179.16V42.08H211.6a1.83,1.83,0,0,1,2,2l-2.14,21.42a2.7,2.7,0,0,1-2.61,2H179.16v13Z" fill="#fff"/><path d="M326,105.57c.77,1.38-.15,2.45-1.68,2.45h-32a4.52,4.52,0,0,1-3.52-2.45L276.32,80l-12.55,25.55a4.52,4.52,0,0,1-3.52,2.45h-32c-1.53,0-2.44-1.07-1.68-2.45L254,55.23,226.59,4.9c-.76-1.38.15-2.45,1.68-2.45H260.1a4.53,4.53,0,0,1,3.52,2.45L276.32,32,289,4.9a4.53,4.53,0,0,1,3.52-2.45h31.83c1.53,0,2.45,1.07,1.68,2.45L298.65,55.23Z" fill="#fff"/><path d="M442,106.18c.77,1.07.15,1.84-1.07,1.84h-35.5a4.16,4.16,0,0,1-3.21-1.84l-19-38.25v37.95A2.23,2.23,0,0,1,381,108H353.88a2.3,2.3,0,0,1-2.14-2.14V4.74a2.33,2.33,0,0,1,2.14-2.29H381a2.25,2.25,0,0,1,2.3,2.29V39L401.62,4.28a4.26,4.26,0,0,1,3.52-1.83h33.51c1.22,0,1.68.76,1.07,1.83l-30.3,48.51Z" fill="#fff"/><path d="M477.05,2.45a2.25,2.25,0,0,1,2.29,2.29V105.88a2.22,2.22,0,0,1-2.29,2.14H450a2.31,2.31,0,0,1-2.15-2.14V4.74A2.34,2.34,0,0,1,450,2.45Z" fill="#fff"/><path d="M578.18,2.45a2.25,2.25,0,0,1,2.3,2.29V105.88a2.23,2.23,0,0,1-2.3,2.14H551.71a4.17,4.17,0,0,1-3.21-2L521.88,58.45v47.43a2.23,2.23,0,0,1-2.3,2.14H492.5a2.19,2.19,0,0,1-2.14-2.14V4.74a2.22,2.22,0,0,1,2.14-2.29H519a4,4,0,0,1,3.52,2L549,52V4.74a2.33,2.33,0,0,1,2.14-2.29Z" fill="#fff"/><path d="M644.28,110.16c-32.59,0-54.32-22-54.32-54.93C590,22,611.69,0,644.28,0s54.31,22,54.31,55.23C698.59,88.13,676.86,110.16,644.28,110.16Zm0-79.25c-12.55,0-21,9.79-21,24.32s8.42,24.33,21,24.33,21-9.79,21-24.33S656.82,30.91,644.28,30.91Z" fill="#fff"/></g></g></svg>