<svg xmlns="http://www.w3.org/2000/svg" viewBox="0 0 576 1047"><title>colorful_line</title><g id="Layer_2" data-name="Layer 2"><g id="Layer_2-2" data-name="Layer 2"><polygon points="432 230 432 357 504 242 504 115 432 230" fill="#34517c"/><polygon points="360 345 360 472 432 357 432 230 360 345" fill="#961db7"/><polygon points="288 460 288 587 360 472 360 345 288 460" fill="#05b1b9"/><polygon points="216 575 216 702 288 587 288 460 216 575" fill="#ff7519"/><polygon points="144 690 144 817 216 702 216 575 144 690" fill="#ff4a19"/><polygon points="0 920 0 1047 72 932 72 805 0 920" fill="#34527c"/><polygon points="72 805 72 932 144 817 144 690 72 805" fill="#f7b733"/><polygon points="504 115 504 242 576 127 576 0 504 115" fill="#f7b733"/></g></g></svg>