<svg xmlns="http://www.w3.org/2000/svg" xmlns:xlink="http://www.w3.org/1999/xlink" viewBox="0 0 74.72 29.26"><defs><linearGradient id="linear-gradient" y1="11.55" x2="23.1" y2="11.55" gradientUnits="userSpaceOnUse"><stop offset="0" stop-color="#f36b21"/><stop offset="1" stop-color="#ce386b"/></linearGradient></defs><title>Eager_Dots_Logo</title><g id="Layer_2" data-name="Layer 2"><g id="Layer_1-2" data-name="Layer 1"><path d="M21.46,1.64C18.18-1.63,11.09.15,5.62,5.62s-7.25,12.56-4,15.84S12,23,17.49,17.49,24.74,4.92,21.46,1.64Zm-7.2,12.62C10.86,17.66,6.6,18.9,4.74,17s-.63-6.13,2.77-9.53S15.17,2.88,17,4.74,17.65,10.86,14.26,14.26Z" fill="url(#linear-gradient)"/><ellipse cx="19.45" cy="10.82" rx="2.45" ry="2.35" transform="translate(4.16 27) rotate(-75.73)" fill="#fff"/><ellipse cx="5.51" cy="20.4" rx="2.68" ry="2.56" transform="translate(-15.62 20.7) rotate(-75.73)" fill="#fff"/><ellipse cx="11.61" cy="3" rx="1.54" ry="1.47" transform="translate(0.1 6.35) rotate(-30.73)" fill="#fff"/><path d="M60.49,14.67h0a.46.46,0,0,1-.39.44,2.63,2.63,0,0,0-1.81,1.17A17.87,17.87,0,0,0,57.41,19a3.57,3.57,0,0,1-2.6,2,.45.45,0,0,1-.54-.44h0a.45.45,0,0,1,.39-.43A2.59,2.59,0,0,0,56.46,19a6.6,6.6,0,0,0,.63-1.91A3.64,3.64,0,0,1,60,14.23.45.45,0,0,1,60.49,14.67Z" fill="#cd376b" stroke="#ce386b" stroke-miterlimit="10" stroke-width="0.25"/><path d="M63.58,5.46a2.63,2.63,0,0,0,0-.49,3.62,3.62,0,0,0-7.11,0,3.89,3.89,0,0,0,0,.49c0,.11,0,.23,0,.35A3.54,3.54,0,0,0,60,8.89a3.64,3.64,0,0,0,3-1.58.4.4,0,0,0-.19-.59.51.51,0,0,0-.17,0,.44.44,0,0,0-.35.18A2.77,2.77,0,0,1,60,8.08a2.71,2.71,0,0,1-2.71-2.27h6.29C63.57,5.69,63.58,5.57,63.58,5.46ZM57.29,5a2.77,2.77,0,0,1,5.4,0Z" fill="#cd376b" stroke="#ce386b" stroke-miterlimit="10" stroke-width="0.25"/><path d="M37.17,5.81c0-.12,0-.24,0-.36a3.88,3.88,0,0,0,0-.48A3.62,3.62,0,0,0,30,5a2.59,2.59,0,0,0,0,.48c0,.12,0,.24,0,.36A3.55,3.55,0,0,0,33.6,8.89a3.63,3.63,0,0,0,3-1.58.4.4,0,0,0-.19-.59.47.47,0,0,0-.17,0,.4.4,0,0,0-.35.18A2.78,2.78,0,0,1,33.6,8.08a2.72,2.72,0,0,1-2.73-2.27ZM30.89,5a2.77,2.77,0,0,1,5.4,0Z" fill="#cd376b" stroke="#ce386b" stroke-miterlimit="10" stroke-width="0.25"/><path d="M42.63,14.29a3.39,3.39,0,1,0,3.54,3.39A3.47,3.47,0,0,0,42.63,14.29Zm0,6a2.61,2.61,0,1,1,2.72-2.61A2.67,2.67,0,0,1,42.63,20.28Z" fill="#cd376b" stroke="#ce386b" stroke-miterlimit="10" stroke-width="0.25"/><path d="M36.69,11.13a.43.43,0,0,0-.43.41v4a3.6,3.6,0,0,0-2.74-1.24,3.39,3.39,0,1,0,0,6.77,3.6,3.6,0,0,0,2.74-1.24v.83a.43.43,0,0,0,.43.42.42.42,0,0,0,.43-.42V11.54A.42.42,0,0,0,36.69,11.13Zm-3.17,9.15a2.61,2.61,0,1,1,2.72-2.61A2.67,2.67,0,0,1,33.52,20.28Z" fill="#cd376b" stroke="#ce386b" stroke-miterlimit="10" stroke-width="0.25"/><path d="M49.47,15.06V17.7A2.71,2.71,0,0,0,52,20.28a.39.39,0,0,1,.35.38h0a.4.4,0,0,1-.46.39,3.83,3.83,0,0,1-2.39-1.19,3.18,3.18,0,0,1-.86-2.16V15.06h-1.2a.42.42,0,0,1-.43-.42h0a.42.42,0,0,1,.43-.41h1.2V11.3a.42.42,0,0,1,.43-.41h0a.42.42,0,0,1,.43.41v2.93h2.42a.43.43,0,0,1,.44.41h0a.43.43,0,0,1-.44.42Z" fill="#cd376b" stroke="#ce386b" stroke-miterlimit="10" stroke-width="0.25"/><path d="M45.42,2.43a.42.42,0,0,0-.43.42v.41A3.67,3.67,0,0,0,42.21,2,3.53,3.53,0,0,0,38.6,5.45,3.53,3.53,0,0,0,42.21,8.9,3.67,3.67,0,0,0,45,7.64v.83a.42.42,0,0,0,.43.42.43.43,0,0,0,.44-.42V2.85A.43.43,0,0,0,45.42,2.43ZM42.21,8.09a2.71,2.71,0,0,1-2.78-2.65,2.77,2.77,0,0,1,5.54,0A2.7,2.7,0,0,1,42.21,8.09Z" fill="#cd376b" stroke="#ce386b" stroke-miterlimit="10" stroke-width="0.25"/><path d="M69.1,2.39a.39.39,0,0,1-.31.38,2.57,2.57,0,0,0-2.37,2.48V8.51a.4.4,0,0,1-.41.38.39.39,0,0,1-.41-.38V2.35A.39.39,0,0,1,66,2a.4.4,0,0,1,.41.38v.82A3.62,3.62,0,0,1,68.7,2h0A.38.38,0,0,1,69.1,2.39Z" fill="#cd376b" stroke="#ce386b" stroke-miterlimit="10" stroke-width="0.25"/><path d="M54.91,5.46a3.91,3.91,0,0,1,0,.49,3.62,3.62,0,0,1-7.12,0,3.91,3.91,0,0,1,0-.49,2.06,2.06,0,0,1,0-.35A3.53,3.53,0,0,1,51.32,2a3.65,3.65,0,0,1,2.81,1.3.36.36,0,0,1,.09.24.41.41,0,0,1-.25.37.45.45,0,0,1-.51-.11,2.78,2.78,0,0,0-2.14-1A2.71,2.71,0,0,0,48.6,5.11a2.07,2.07,0,0,0,0,.35,2.63,2.63,0,0,0,0,.49A2.77,2.77,0,0,0,54,6H52.66a.42.42,0,0,1-.43-.41.42.42,0,0,1,.43-.42h2.23A2.06,2.06,0,0,1,54.91,5.46Z" fill="#cd376b" stroke="#ce386b" stroke-miterlimit="10" stroke-width="0.25"/><path d="M30.2,26.7,30.77,28l.55-1.31h.12L32,28l.57-1.31h.2L32,28.45l-.61-1.4-.61,1.4L30,26.7Z" fill="#cd376b"/><path d="M34.62,27.54v.08H33.11a.67.67,0,0,0,.7.61A.78.78,0,0,0,34.4,28l.14.13a1,1,0,0,1-.73.34.87.87,0,0,1-.9-.88.86.86,0,1,1,1.71,0Zm-.21-.1a.64.64,0,0,0-.64-.59.62.62,0,0,0-.65.59Z" fill="#cd376b"/><path d="M35.09,28.38V25.6h.2V27a.74.74,0,0,1,.63-.31.88.88,0,0,1,0,1.76.75.75,0,0,1-.65-.33v.29Zm.2-.5a.72.72,0,0,0,.63.35.69.69,0,0,0,0-1.38.72.72,0,0,0-.63.35Z" fill="#cd376b"/><path d="M39.63,28.38v-.31a.77.77,0,0,1-.65.35.88.88,0,0,1,0-1.76.78.78,0,0,1,.64.33V25.6h.19v2.78Zm0-1.15a.73.73,0,0,0-.63-.38.69.69,0,0,0,0,1.38.73.73,0,0,0,.63-.39Z" fill="#cd376b"/><path d="M42,27.54a.25.25,0,0,1,0,.08h-1.5a.67.67,0,0,0,.69.61.8.8,0,0,0,.6-.28l.14.13a1,1,0,0,1-.74.34.87.87,0,0,1-.89-.88.86.86,0,1,1,1.71,0Zm-.21-.1a.65.65,0,0,0-1.3,0Z" fill="#cd376b"/><path d="M42.43,27.94a.71.71,0,0,0,.6.29c.19,0,.45-.07.45-.29s-.21-.25-.49-.31-.62-.22-.62-.5.24-.47.62-.47a.91.91,0,0,1,.63.23l-.13.14a.74.74,0,0,0-.5-.18c-.24,0-.41.11-.41.28s.23.27.52.33.59.18.59.48-.33.48-.66.48a.9.9,0,0,1-.75-.36Z" fill="#cd376b"/><path d="M44.28,26a.15.15,0,0,1,0,.3.15.15,0,0,1,0-.3Zm-.1.69h.2v1.68h-.2Z" fill="#cd376b"/><path d="M46.55,26.7v1.72a.8.8,0,0,1-.86.84,1.11,1.11,0,0,1-.8-.34l.13-.13a.89.89,0,0,0,.67.29.6.6,0,0,0,.66-.66V28.1a.8.8,0,0,1-.64.32.88.88,0,0,1,0-1.76.78.78,0,0,1,.66.35V26.7Zm-.2.53a.72.72,0,0,0-.64-.38.69.69,0,0,0,0,1.38.72.72,0,0,0,.64-.39Z" fill="#cd376b"/><path d="M48.53,27.31v1.07h-.2v-1a.44.44,0,0,0-.49-.49.61.61,0,0,0-.54.37v1.16h-.2V26.7h.18V27a.68.68,0,0,1,.6-.35A.61.61,0,0,1,48.53,27.31Z" fill="#cd376b"/><path d="M52.2,27a1.68,1.68,0,0,1-.17.84l.49.42-.13.14-.47-.4a1.28,1.28,0,0,1-.93.45c-.54,0-.85-.28-.85-.61s.21-.44.68-.78c-.3-.26-.5-.43-.5-.7a.61.61,0,0,1,.67-.57.62.62,0,0,1,.68.57c0,.26-.14.39-.54.71l.75.65A1.39,1.39,0,0,0,52,27Zm-.42.88-.82-.7c-.32.24-.61.41-.61.63s.3.45.64.45A1.05,1.05,0,0,0,51.78,27.85ZM51,26.92c.32-.24.47-.36.47-.59a.48.48,0,0,0-.94,0C50.52,26.59,50.81,26.77,51,26.92Z" fill="#cd376b"/><path d="M55.23,28.38v-.31a.77.77,0,0,1-.65.35.88.88,0,0,1,0-1.76.78.78,0,0,1,.64.33V25.6h.19v2.78Zm0-1.15a.71.71,0,0,0-.63-.38.69.69,0,0,0,0,1.38.73.73,0,0,0,.63-.39Z" fill="#cd376b"/><path d="M57.6,27.54v.08H56.09a.67.67,0,0,0,.7.61.78.78,0,0,0,.59-.28l.14.13a1,1,0,0,1-.73.34.87.87,0,0,1-.9-.88.86.86,0,1,1,1.71,0Zm-.21-.1a.64.64,0,0,0-.64-.59.62.62,0,0,0-.65.59Z" fill="#cd376b"/><path d="M57.92,26.7l.66,1.35.67-1.35h.21l-.88,1.75-.87-1.75Z" fill="#cd376b"/><path d="M61.29,27.54a.25.25,0,0,1,0,.08h-1.5a.67.67,0,0,0,.7.61.79.79,0,0,0,.59-.28l.14.13a1,1,0,0,1-.73.34.87.87,0,0,1-.9-.88.86.86,0,1,1,1.71,0Zm-.21-.1a.65.65,0,0,0-1.3,0Z" fill="#cd376b"/><path d="M61.77,25.6H62v2.78h-.2Z" fill="#cd376b"/><path d="M64.22,27.54a.89.89,0,1,1-.89-.88A.87.87,0,0,1,64.22,27.54Zm-.21,0a.68.68,0,1,0-.68.69A.65.65,0,0,0,64,27.54Z" fill="#cd376b"/><path d="M64.81,26.7V27a.77.77,0,0,1,.65-.35.88.88,0,0,1,0,1.76.8.8,0,0,1-.63-.32v1.12h-.2V26.7Zm0,1.14a.73.73,0,0,0,.63.39.69.69,0,0,0,0-1.38.73.73,0,0,0-.63.38Z" fill="#cd376b"/><path d="M68.05,28.38h-.2V27.33c0-.34-.16-.48-.43-.48a.55.55,0,0,0-.47.32v1.21h-.2V26.7h.18V27a.61.61,0,0,1,.54-.33A.54.54,0,0,1,68,27a.61.61,0,0,1,.56-.33.55.55,0,0,1,.58.62v1.1h-.2V27.33c0-.34-.16-.48-.43-.48a.53.53,0,0,0-.46.32Z" fill="#cd376b"/><path d="M71.26,27.54v.08H69.75a.68.68,0,0,0,.7.61.8.8,0,0,0,.6-.28l.13.13a1,1,0,0,1-.73.34.88.88,0,0,1-.9-.88.86.86,0,1,1,1.71,0Zm-.2-.1a.65.65,0,0,0-1.3,0Z" fill="#cd376b"/><path d="M73.11,27.31v1.07h-.2v-1a.44.44,0,0,0-.49-.49.61.61,0,0,0-.54.37v1.16h-.2V26.7h.18V27a.68.68,0,0,1,.6-.35A.61.61,0,0,1,73.11,27.31Z" fill="#cd376b"/><path d="M73.5,26.7h.38v-.54h.19v.54h.6v.18h-.6v1c0,.18.07.34.31.34a.58.58,0,0,0,.26-.07l.08.16a.79.79,0,0,1-.35.1.45.45,0,0,1-.49-.5v-1H73.5Z" fill="#cd376b"/></g></g></svg>