<svg xmlns="http://www.w3.org/2000/svg" viewBox="0 0 1185.86 966.62"><title>logo_Flex_Kino</title><g id="Layer_2" data-name="Layer 2"><g id="Layer_1-2" data-name="Layer 1"><path d="M1072.43,0h-959A113.42,113.42,0,0,0,0,113.43V853.19A113.42,113.42,0,0,0,113.43,966.62h959a113.43,113.43,0,0,0,113.43-113.43V113.43A113.43,113.43,0,0,0,1072.43,0Zm21.37,839.54a35,35,0,0,1-35,35H125.82a35,35,0,0,1-35-35V127.09a35,35,0,0,1,35-35h933a35,35,0,0,1,35,35Z"/><polygon points="864.92 423.34 941.37 423.34 807.29 202.77 730.83 202.77 864.92 423.34" fill="#1c2d4e"/><polygon points="752.52 493.79 674.13 493.79 854.66 202.77 933.05 202.77 752.52 493.79" fill="#34517c"/><path d="M535.39,367.07a4.31,4.31,0,0,1,4.15,4.48l-4.48,48.59a5.47,5.47,0,0,1-5.11,4.47H414.55a4.87,4.87,0,0,1-4.79-4.47V208.83a4.91,4.91,0,0,1,4.79-4.79h56.58a4.93,4.93,0,0,1,4.8,4.79V367.07Z"/><path d="M706.1,367.07c2.56,0,4.8,1.92,4.8,4.15v48.92a4.88,4.88,0,0,1-4.8,4.47H557.45c-2.24,0-4.47-2.55-5.11-4.8V208.51c0-2.88,1.6-4.47,4.48-4.47H702.26c2.88,0,5.11,2.24,5.11,4.47v48.27a4.79,4.79,0,0,1-5.11,4.8H618.83v25.25H686.6c2.88,0,4.48,2.24,4.15,4.16l-4.47,44.75a5.61,5.61,0,0,1-5.43,4.16h-62v27.17Z"/><path d="M391.53,204a4.65,4.65,0,0,1,4.8,4.47v48.27a4.53,4.53,0,0,1-4.8,4.8h-81.2v29.09h64.25c2.88,0,4.48,2.24,4.17,4.16l-4.48,44.74a5.63,5.63,0,0,1-5.44,4.16h-58.5v76.41a4.88,4.88,0,0,1-4.8,4.47H249c-2.55,0-4.47-2.55-4.47-4.8V208.51A4.57,4.57,0,0,1,249,204Z"/><path d="M701.19,543.28a4.7,4.7,0,0,1,4.79,4.8V759.39a4.64,4.64,0,0,1-4.79,4.46H645.88a8.68,8.68,0,0,1-6.71-4.16l-55.62-99.41v99.11a4.65,4.65,0,0,1-4.8,4.46H522.17a4.57,4.57,0,0,1-4.47-4.46V548.08a4.65,4.65,0,0,1,4.47-4.8h55.31c2.87,0,6.07,1.6,7.35,4.16l55.3,99.42V548.08a4.88,4.88,0,0,1,4.48-4.8Z"/><path d="M416.67,760c1.6,2.24.33,3.83-2.23,3.83H340.28a8.68,8.68,0,0,1-6.72-3.83L293.92,680.1v79.29a4.65,4.65,0,0,1-4.8,4.46H232.54a4.81,4.81,0,0,1-4.47-4.46V548.08a4.87,4.87,0,0,1,4.47-4.8h56.58a4.71,4.71,0,0,1,4.8,4.8v71.6l38.37-72.56c1.27-2.24,4.46-3.84,7.34-3.84h70c2.56,0,3.52,1.6,2.24,3.84L348.59,648.45Z"/><path d="M489.87,543.28a4.71,4.71,0,0,1,4.8,4.8V759.39a4.65,4.65,0,0,1-4.8,4.46H433.29a4.8,4.8,0,0,1-4.46-4.46V548.08a4.87,4.87,0,0,1,4.46-4.8Z"/><path d="M952.51,646a65.52,65.52,0,0,0-.64-7.24v-.26a4.36,4.36,0,0,0-.13-1.29,1.65,1.65,0,0,0-.13-.78c-.39-2.84-.78-5.68-1.42-8.53a112,112,0,0,0-5.43-19.12l-.39-1c-.77-1.68-1.42-3.36-2.19-4.91a36.77,36.77,0,0,0-1.94-3.75l-.78-1.55a47.74,47.74,0,0,0-4.52-7.49,72.57,72.57,0,0,0-6-8.15l-.13-.12c-1.68-2.07-3.49-4-5.29-6a18.39,18.39,0,0,0-1.56-1.68l-.25-.26a6.36,6.36,0,0,0-1.3-1.29l-.26-.26c-.9-.77-1.93-1.68-3-2.45l-2.84-2.59-.78-.52a13.48,13.48,0,0,0-2.06-1.68l-.13-.13L908.7,563a94.49,94.49,0,0,0-11.76-6.85,64.47,64.47,0,0,0-9.69-4.27c-14.22-5.69-30.24-8.66-48-8.66-68.11,0-113.47,44.07-113.47,110.37,0,65.66,45.36,109.6,113.47,109.6,67.85,0,113.34-43.81,113.47-109.21v-.39C952.77,651,952.64,648.55,952.51,646ZM839.3,702.06c-26.23,0-43.81-19.52-43.81-48.47S813.07,605,839.3,605,883,624.51,883,653.59,865.41,702.06,839.3,702.06Z"/><path d="M706,548.08a4.71,4.71,0,0,0-4.8-4.8H644.61a4.88,4.88,0,0,0-4.48,4.8v98.78L609.61,592,517.7,740.16v19.23a4.57,4.57,0,0,0,4.47,4.46h56.58a4.73,4.73,0,0,0,3.81-1.88l.67-1.09a4.11,4.11,0,0,0,.32-1.49V660.28L613,712.91,706,563Z" fill="#34517c"/></g></g></svg>